:SAMPLES-PER-SECOND 30
:FULLY-SPECIFIED
:DEGREES
346
root  -6.50547 36.3806 1.1531 -164.692 -71.8372 162.225
RightUpLeg  -30.7628 2.478 6.3453
RightLeg  44.2938 -8.51417 -9.03982
RightFoot  -5.81706 0.418411 -9.04658
RightToes  7.56698e-010 0 -3.6325e-017
Spine  8.05989 -1.56174 -3.03709
Spine1  7.25189 -5.63485 13.1989
HEad  -14.6695 27.0721 -28.9687
LeftShoulder1  1.86542 -5.45213 -13.8895
LeftArm  -37.7365 -16.4132 -40.3913
LeftForeArm  152.957 -54.5541 -164.719
LeftHand  0.139978 5.9891 26.851
RightShoulder  1.84679 4.28904 17.1073
RightArm  -29.4253 25.5757 55.4817
RightForeArm  132.576 73.4844 141.016
RightHand  -0.980566 2.71404 -14.1914
LeftUpLeg  16.6565 -2.70401 -13.0649
LeftLeg  28.0114 0.522449 0.676806
LeftFoot  -22.241 0.041372 -1.2671
LeftToes  -3.13779e-010 -2.47553e-011 -5.36621e-011
347
root  -6.02984 37.849 0.473093 -158.185 -78.1026 155.642
RightUpLeg  -26.6945 -3.43661 6.67348
RightLeg  34.4686 -8.93424 -6.92182
RightFoot  3.14595 1.0114 -7.97512
RightToes  7.56698e-010 0 -3.6325e-017
Spine  9.07977 -2.80361 -5.56883
Spine1  7.0831 -7.36109 14.99
HEad  -13.8854 25.9104 -26.988
LeftShoulder1  1.96867 -5.99174 -13.8013
LeftArm  -30.5096 -13.3834 -47.1501
LeftForeArm  145.3 -65.7859 -154.836
LeftHand  -0.207598 4.47775 26.473
RightShoulder  1.88383 4.36592 17.3668
RightArm  -29.6526 24.1027 55.7935
RightForeArm  96.0191 79.1019 103.185
RightHand  -1.253 3.93531 -15.7713
LeftUpLeg  13.9167 -4.89341 -9.1606
LeftLeg  29.1231 -1.00969 -0.288191
LeftFoot  -10.0389 0.160157 -5.43377
LeftToes  -3.13779e-010 -2.47553e-011 -5.36621e-011
348
root  -5.29366 39.552 -0.303794 -145.646 -82.89 143.18
RightUpLeg  -21.0866 -8.51587 6.17559
RightLeg  20.4954 -5.90227 -2.48436
RightFoot  14.4437 0.0585765 -0.214151
RightToes  7.56698e-010 0 -3.6325e-017
Spine  11.3529 -2.85663 -6.22496
Spine1  5.86473 -6.74494 13.2265
HEad  -10.0582 22.2606 -19.5277
LeftShoulder1  2.01778 -7.07709 -11.9795
LeftArm  -24.4334 -11.6867 -54.5136
LeftForeArm  99.5904 -78.7586 -102.441
LeftHand  -0.777299 1.9619 26.0205
RightShoulder  1.95242 4.41099 18.1575
RightArm  -31.1721 20.4979 56.8856
RightForeArm  37.6942 74.718 42.2438
RightHand  -1.63652 5.77346 -17.2016
LeftUpLeg  7.01339 -6.37602 -5.4431
LeftLeg  33.8526 -2.51083 -1.38512
LeftFoot  8.47925 1.13752 -7.16719
LeftToes  -3.13779e-010 -2.47553e-011 -5.36621e-011
349
root  -4.69859 40.7649 -0.901159 -143.468 -83.779 141.191
RightUpLeg  -16.7271 -7.77214 4.63761
RightLeg  12.3204 -0.935857 0.605608
RightFoot  21.574 -3.84348 13.7139
RightToes  7.56698e-010 0 -3.6325e-017
Spine  13.1286 -1.18329 -2.58117
Spine1  5.43032 -2.80948 5.92077
HEad  -6.56893 15.7796 -10.8933
LeftShoulder1  2.04723 -8.23839 -10.1255
LeftArm  -21.9522 -14.2908 -58.8055
LeftForeArm  25.4386 -65.2091 -22.1353
LeftHand  -1.43665 -0.589071 27.5739
RightShoulder  1.9876 4.63922 17.8869
RightArm  -33.2398 18.6326 57.1341
RightForeArm  18.1327 62.11 19.884
RightHand  -2.1496 7.82886 -19.0171
LeftUpLeg  -1.76028 -5.61579 -3.76797
LeftLeg  41.0521 2.09612 2.49277
LeftFoot  22.6406 1.30388 -4.72705
LeftToes  -3.13779e-010 -2.47553e-011 -5.36621e-011
350
root  -4.28914 41.6335 -1.41288 -155.609 -83.6874 153.023
RightUpLeg  -14.3104 -4.2812 3.74399
RightLeg  15.2657 3.1458 1.25029
RightFoot  21.0861 -6.24453 21.7993
RightToes  7.56698e-010 0 -3.6325e-017
Spine  14.3699 0.744121 2.12814
Spine1  6.86834 1.47161 -1.51848
HEad  -5.82344 9.21037 -4.93282
LeftShoulder1  2.19964 -8.74753 -10.7185
LeftArm  -22.0652 -20.5418 -59.4265
LeftForeArm  11.563 -42.0724 -8.73427
LeftHand  -1.87358 -1.85464 29.7237
RightShoulder  1.91384 5.17114 15.3256
RightArm  -33.6806 20.7675 56.665
RightForeArm  11.6145 48.5253 11.7068
RightHand  -2.72032 9.40505 -21.4529
LeftUpLeg  -9.90572 -4.11531 -2.66891
LeftLeg  47.6811 7.92632 9.56237
LeftFoot  26.1103 0.54394 -2.03336
LeftToes  -3.13779e-010 -2.47553e-011 -5.36621e-011
351
root  -3.97861 42.2391 -2.03124 -149.081 -85.6782 145.099
RightUpLeg  -10.71 -1.08705 3.06137
RightLeg  24.2449 2.85556 1.0889
RightFoot  16.4882 -4.61697 18.8566
RightToes  7.56698e-010 0 -3.6325e-017
Spine  15.5825 1.39573 4.20991
Spine1  9.469 3.44835 -5.35476
HEad  -6.94267 4.29349 -0.682928
LeftShoulder1  2.47199 -8.74967 -13.1765
LeftArm  -24.3192 -26.3525 -58.1402
LeftForeArm  3.43443 -26.2227 -5.43181
LeftHand  -1.97166 -2.38586 29.1268
RightShoulder  1.74919 5.58136 12.1925
RightArm  -32.3812 25.1579 55.9395
RightForeArm  8.23364 37.7346 8.10331
RightHand  -3.01234 9.89798 -22.925
LeftUpLeg  -16.3409 -4.9056 -2.13164
LeftLeg  50.3764 8.46729 11.2113
LeftFoot  22.8997 0.345847 -1.62994
LeftToes  -3.13779e-010 -2.47553e-011 -5.36621e-011
352
root  -3.79832 42.4181 -2.74352 -86.499 -87.618 80.7202
RightUpLeg  -4.47134 0.145836 2.44451
RightLeg  31.2424 0.309134 -0.0211246
RightFoot  11.8734 -2.61479 13.1362
RightToes  7.56698e-010 0 -3.6325e-017
Spine  16.6095 0.833528 3.97457
Spine1  11.2597 3.51674 -7.55618
HEad  -8.31533 0.250486 4.19425
LeftShoulder1  2.73193 -8.83576 -15.3334
LeftArm  -26.8258 -28.1478 -56.4385
LeftForeArm  0.364924 -20.6889 -4.80642
LeftHand  -1.88929 -2.61358 27.2001
RightShoulder  1.67575 5.50915 11.476
RightArm  -30.9459 28.3065 54.6315
RightForeArm  6.47337 32.849 6.86492
RightHand  -2.99292 9.85793 -22.832
LeftUpLeg  -20.9819 -7.39996 -3.09711
LeftLeg  47.6404 5.06046 6.44703
LeftFoot  19.9465 1.29214 -5.04311
LeftToes  -3.13779e-010 -2.47553e-011 -5.36621e-011
353
root  -3.9122 42.1797 -3.41309 -17.5592 -84.0073 11.157
RightUpLeg  2.32623 0.698434 3.3186
RightLeg  33.814 -2.39153 -1.96996
RightFoot  7.33998 -1.46801 9.16085
RightToes  7.56698e-010 0 -3.6325e-017
Spine  16.195 -0.0712532 4.8082
Spine1  11.5467 3.43143 -10.084
HEad  -9.42728 -4.0648 9.91664
LeftShoulder1  2.96906 -9.06676 -16.9472
LeftArm  -25.2212 -25.8204 -54.9482
LeftForeArm  0.241897 -24.7882 -5.29313
LeftHand  -1.79883 -2.47043 26.4096
RightShoulder  1.76337 5.26715 13.153
RightArm  -31.3707 27.4079 52.5917
RightForeArm  6.68286 36.5257 7.88966
RightHand  -2.85806 9.77743 -21.9565
LeftUpLeg  -24.3252 -8.37951 -5.00853
LeftLeg  41.4286 1.78556 2.05102
LeftFoot  21.4248 2.91834 -10.2939
LeftToes  -3.13779e-010 -2.47553e-011 -5.36621e-011
354
root  -4.35872 41.4667 -4.02356 -7.13327 -79.8166 1.72125
RightUpLeg  7.74632 1.00003 6.04575
RightLeg  33.3244 -8.5286 -6.18187
RightFoot  3.01387 -0.453057 3.75632
RightToes  7.56698e-010 0 -3.6325e-017
Spine  13.6127 -0.25843 6.39176
Spine1  11.3952 3.88023 -12.2679
HEad  -10.5918 -8.73367 15.0764
LeftShoulder1  3.25685 -9.22943 -19.0656
LeftArm  -23.6903 -20.8849 -54.0026
LeftForeArm  3.43035 -36.4117 -8.07992
LeftHand  -1.8091 -2.63332 26.05
RightShoulder  1.83783 4.98807 14.8503
RightArm  -34.1258 22.1829 50.5004
RightForeArm  9.50868 49.373 12.61
RightHand  -2.5571 9.23463 -20.4126
LeftUpLeg  -26.9407 -7.04527 -7.35413
LeftLeg  36.5597 1.04302 1.16689
LeftFoot  26.1672 4.19372 -12.8589
LeftToes  -3.13779e-010 -2.47553e-011 -5.36621e-011
355
root  -4.8161 40.3389 -4.55688 2.7774 -76.59 -6.47836
RightUpLeg  10.9119 -0.150429 8.81333
RightLeg  31.7264 -17.0388 -11.3049
RightFoot  0.361308 -0.0055274 0.110785
RightToes  7.56698e-010 0 -3.6325e-017
Spine  10.3624 0.456192 7.83612
Spine1  11.5223 4.82455 -13.2219
HEad  -11.7296 -12.9856 18.4306
LeftShoulder1  3.56297 -9.35685 -21.3452
LeftArm  -22.3982 -14.4613 -54.4856
LeftForeArm  8.80248 -53.4215 -14.904
LeftHand  -1.76113 -3.08762 24.0569
RightShoulder  1.76728 4.46383 15.4424
RightArm  -37.4954 15.4435 48.9327
RightForeArm  19.1432 66.557 26.0491
RightHand  -2.06322 7.73038 -18.432
LeftUpLeg  -28.7798 -6.5129 -8.55084
LeftLeg  36.5984 2.08878 2.03243
LeftFoot  27.3467 3.81515 -11.3501
LeftToes  -3.13779e-010 -2.47553e-011 -5.36621e-011
